<mxGraphModel dx="0" dy="0" grid="1" gridSize="10" guides="1" tooltips="1" connect="1" arrows="1" fold="1" page="0" pageScale="1" background="none" math="0" shadow="0">
  <root>
    <mxCell id="0" />
    <mxCell id="1" parent="0" />
    <mxCell id="node4" parent="1" vertex="1" value="&lt;p style=&quot;margin:0px;margin-top:4px;text-align:center;&quot;&gt;&lt;b&gt;AnioReporteDTO&lt;/b&gt;&lt;/p&gt;&lt;hr size=&quot;1&quot;/&gt;&lt;p style=&quot;margin:0 0 0 4px;line-height:1.6;&quot;&gt;+ AnioReporteDTO(int, long, long): &lt;br/&gt;+ AnioReporteDTO(): &lt;/p&gt;&lt;hr size=&quot;1&quot;/&gt;&lt;p style=&quot;margin:0 0 0 4px;line-height:1.6;&quot;&gt;- cantidadGraduados: long&lt;br/&gt;- cantidadInscriptos: long&lt;br/&gt;- anio: int&lt;/p&gt;&lt;hr size=&quot;1&quot;/&gt;&lt;p style=&quot;margin:0 0 0 4px;line-height:1.6;&quot;&gt;+ setCantidadInscriptos(long): void&lt;br/&gt;+ setCantidadGraduados(long): void&lt;br/&gt;+ getCantidadInscriptos(): long&lt;br/&gt;+ getAnio(): int&lt;br/&gt;+ getCantidadGraduados(): long&lt;br/&gt;+ setAnio(int): void&lt;br/&gt;+ toString(): String&lt;/p&gt;" style="verticalAlign=top;align=left;overflow=fill;fontSize=14;fontFamily=Helvetica;html=1;rounded=0;shadow=0;comic=0;labelBackgroundColor=none;strokeWidth=1;">
      <mxGeometry x="2531" y="1202" width="260" height="331" as="geometry" />
    </mxCell>
    <mxCell id="node3" parent="1" vertex="1" value="&lt;p style=&quot;margin:0px;margin-top:4px;text-align:center;&quot;&gt;&lt;b&gt;Carrera&lt;/b&gt;&lt;/p&gt;&lt;hr size=&quot;1&quot;/&gt;&lt;p style=&quot;margin:0 0 0 4px;line-height:1.6;&quot;&gt;+ Carrera(int, String, int, List&amp;lt;Estudiante_carrera&amp;gt;): &lt;br/&gt;+ Carrera(String, int): &lt;br/&gt;+ Carrera(): &lt;/p&gt;&lt;hr size=&quot;1&quot;/&gt;&lt;p style=&quot;margin:0 0 0 4px;line-height:1.6;&quot;&gt;- id_carrera: int&lt;br/&gt;- carrera: String&lt;br/&gt;- carreras: List&amp;lt;Estudiante_carrera&amp;gt;&lt;br/&gt;- duracion: int&lt;/p&gt;&lt;hr size=&quot;1&quot;/&gt;&lt;p style=&quot;margin:0 0 0 4px;line-height:1.6;&quot;&gt;+ setDuracion(int): void&lt;br/&gt;+ setId_carrera(int): void&lt;br/&gt;+ setCarrera(String): void&lt;br/&gt;+ getDuracion(): int&lt;br/&gt;+ getCarreras(): List&amp;lt;Estudiante_carrera&amp;gt;&lt;br/&gt;+ getId_carrera(): int&lt;br/&gt;+ setCarreras(List&amp;lt;Estudiante_carrera&amp;gt;): void&lt;br/&gt;+ getCarrera(): String&lt;/p&gt;" style="verticalAlign=top;align=left;overflow=fill;fontSize=14;fontFamily=Helvetica;html=1;rounded=0;shadow=0;comic=0;labelBackgroundColor=none;strokeWidth=1;">
      <mxGeometry x="91" y="653" width="360" height="403" as="geometry" />
    </mxCell>
    <mxCell id="node9" parent="1" vertex="1" value="&lt;p style=&quot;margin:0px;margin-top:4px;text-align:center;&quot;&gt;&lt;b&gt;CarreraDTO&lt;/b&gt;&lt;/p&gt;&lt;hr size=&quot;1&quot;/&gt;&lt;p style=&quot;margin:0 0 0 4px;line-height:1.6;&quot;&gt;+ CarreraDTO(int, String, int): &lt;br/&gt;+ CarreraDTO(): &lt;/p&gt;&lt;hr size=&quot;1&quot;/&gt;&lt;p style=&quot;margin:0 0 0 4px;line-height:1.6;&quot;&gt;- id: int&lt;br/&gt;- nombre: String&lt;br/&gt;- duracion: int&lt;/p&gt;&lt;hr size=&quot;1&quot;/&gt;&lt;p style=&quot;margin:0 0 0 4px;line-height:1.6;&quot;&gt;+ getNombre(): String&lt;br/&gt;+ setDuracion(int): void&lt;br/&gt;+ getId(): int&lt;br/&gt;+ setNombre(String): void&lt;br/&gt;+ getDuracion(): int&lt;br/&gt;+ setId(int): void&lt;br/&gt;+ toString(): String&lt;/p&gt;" style="verticalAlign=top;align=left;overflow=fill;fontSize=14;fontFamily=Helvetica;html=1;rounded=0;shadow=0;comic=0;labelBackgroundColor=none;strokeWidth=1;">
      <mxGeometry x="1287" y="997" width="223" height="331" as="geometry" />
    </mxCell>
    <mxCell id="node5" parent="1" vertex="1" value="&lt;p style=&quot;margin:0px;margin-top:4px;text-align:center;&quot;&gt;&lt;b&gt;CarreraReporteDTO&lt;/b&gt;&lt;/p&gt;&lt;hr size=&quot;1&quot;/&gt;&lt;p style=&quot;margin:0 0 0 4px;line-height:1.6;&quot;&gt;+ CarreraReporteDTO(String, List&amp;lt;AnioReporteDTO&amp;gt;): &lt;br/&gt;+ CarreraReporteDTO(): &lt;/p&gt;&lt;hr size=&quot;1&quot;/&gt;&lt;p style=&quot;margin:0 0 0 4px;line-height:1.6;&quot;&gt;- nombreCarrera: String&lt;br/&gt;- reportesPorAnio: List&amp;lt;AnioReporteDTO&amp;gt;&lt;/p&gt;&lt;hr size=&quot;1&quot;/&gt;&lt;p style=&quot;margin:0 0 0 4px;line-height:1.6;&quot;&gt;+ toString(): String&lt;br/&gt;+ setNombreCarrera(String): void&lt;br/&gt;+ getNombreCarrera(): String&lt;br/&gt;+ getReportesPorAnio(): List&amp;lt;AnioReporteDTO&amp;gt;&lt;br/&gt;+ setReportesPorAnio(List&amp;lt;AnioReporteDTO&amp;gt;): void&lt;/p&gt;" style="verticalAlign=top;align=left;overflow=fill;fontSize=14;fontFamily=Helvetica;html=1;rounded=0;shadow=0;comic=0;labelBackgroundColor=none;strokeWidth=1;">
      <mxGeometry x="2880" y="1191" width="375" height="259" as="geometry" />
    </mxCell>
    <mxCell id="node11" parent="1" vertex="1" value="&lt;p style=&quot;margin:0px;margin-top:4px;text-align:center;&quot;&gt;&lt;b&gt;Estudiante&lt;/b&gt;&lt;/p&gt;&lt;hr size=&quot;1&quot;/&gt;&lt;p style=&quot;margin:0 0 0 4px;line-height:1.6;&quot;&gt;+ Estudiante(int, String, String, int, String, String, int): &lt;br/&gt;+ Estudiante(): &lt;br/&gt;+ Estudiante(int, String, String, int, String, String, int, List&amp;lt;Estudiante_carrera&amp;gt;): &lt;/p&gt;&lt;hr size=&quot;1&quot;/&gt;&lt;p style=&quot;margin:0 0 0 4px;line-height:1.6;&quot;&gt;- lu: int&lt;br/&gt;- nombre: String&lt;br/&gt;- genero: String&lt;br/&gt;- ciudad: String&lt;br/&gt;- carreras: List&amp;lt;Estudiante_carrera&amp;gt;&lt;br/&gt;- dni_estudiante: int&lt;br/&gt;- apellido: String&lt;br/&gt;- edad: int&lt;/p&gt;&lt;hr size=&quot;1&quot;/&gt;&lt;p style=&quot;margin:0 0 0 4px;line-height:1.6;&quot;&gt;+ getDni_estudiante(): int&lt;br/&gt;+ getNombre(): String&lt;br/&gt;+ getEdad(): int&lt;br/&gt;+ getCiudad(): String&lt;br/&gt;+ getLu(): int&lt;br/&gt;+ setApellido(String): void&lt;br/&gt;+ setGenero(String): void&lt;br/&gt;+ getGenero(): String&lt;br/&gt;+ setNombre(String): void&lt;br/&gt;+ setEdad(int): void&lt;br/&gt;+ setCarreras(List&amp;lt;Estudiante_carrera&amp;gt;): void&lt;br/&gt;+ setCiudad(String): void&lt;br/&gt;+ setLu(int): void&lt;br/&gt;+ getCarreras(): List&amp;lt;Estudiante_carrera&amp;gt;&lt;br/&gt;+ getApellido(): String&lt;br/&gt;+ setDni_estudiante(int): void&lt;/p&gt;" style="verticalAlign=top;align=left;overflow=fill;fontSize=14;fontFamily=Helvetica;html=1;rounded=0;shadow=0;comic=0;labelBackgroundColor=none;strokeWidth=1;">
      <mxGeometry x="504" y="1118" width="392" height="691" as="geometry" />
    </mxCell>
    <mxCell id="node6" parent="1" vertex="1" value="&lt;p style=&quot;margin:0px;margin-top:4px;text-align:center;&quot;&gt;&lt;b&gt;EstudianteCarreraCiudadDTO&lt;/b&gt;&lt;/p&gt;&lt;hr size=&quot;1&quot;/&gt;&lt;p style=&quot;margin:0 0 0 4px;line-height:1.6;&quot;&gt;+ EstudianteCarreraCiudadDTO(String, String, int, String, String): &lt;br/&gt;+ EstudianteCarreraCiudadDTO(): &lt;/p&gt;&lt;hr size=&quot;1&quot;/&gt;&lt;p style=&quot;margin:0 0 0 4px;line-height:1.6;&quot;&gt;- ciudad: String&lt;br/&gt;- nombre: String&lt;br/&gt;- carrera: String&lt;br/&gt;- apellido: String&lt;br/&gt;- dni: int&lt;/p&gt;&lt;hr size=&quot;1&quot;/&gt;&lt;p style=&quot;margin:0 0 0 4px;line-height:1.6;&quot;&gt;+ setNombre(String): void&lt;br/&gt;+ getCiudad(): String&lt;br/&gt;+ setApellido(String): void&lt;br/&gt;+ getCarrera(): String&lt;br/&gt;+ getNombre(): String&lt;br/&gt;+ getApellido(): String&lt;br/&gt;+ getDni(): int&lt;br/&gt;+ setCarrera(String): void&lt;br/&gt;+ toString(): String&lt;br/&gt;+ setDni(int): void&lt;br/&gt;+ setCiudad(String): void&lt;/p&gt;" style="verticalAlign=top;align=left;overflow=fill;fontSize=14;fontFamily=Helvetica;html=1;rounded=0;shadow=0;comic=0;labelBackgroundColor=none;strokeWidth=1;">
      <mxGeometry x="2046" y="1226" width="423" height="475" as="geometry" />
    </mxCell>
    <mxCell id="node14" parent="1" vertex="1" value="&lt;p style=&quot;margin:0px;margin-top:4px;text-align:center;&quot;&gt;&lt;b&gt;EstudianteCarreraDTO&lt;/b&gt;&lt;/p&gt;&lt;hr size=&quot;1&quot;/&gt;&lt;p style=&quot;margin:0 0 0 4px;line-height:1.6;&quot;&gt;+ EstudianteCarreraDTO(int, int, int, Integer, int): &lt;br/&gt;+ EstudianteCarreraDTO(): &lt;/p&gt;&lt;hr size=&quot;1&quot;/&gt;&lt;p style=&quot;margin:0 0 0 4px;line-height:1.6;&quot;&gt;- idCarrera: int&lt;br/&gt;- dniEstudiante: int&lt;br/&gt;- anioGraduacion: Integer&lt;br/&gt;- anioInscripcion: int&lt;br/&gt;- antiguedad: int&lt;/p&gt;&lt;hr size=&quot;1&quot;/&gt;&lt;p style=&quot;margin:0 0 0 4px;line-height:1.6;&quot;&gt;+ getAnioInscripcion(): int&lt;br/&gt;+ setDniEstudiante(int): void&lt;br/&gt;+ setIdCarrera(int): void&lt;br/&gt;+ getDniEstudiante(): int&lt;br/&gt;+ setAntiguedad(int): void&lt;br/&gt;+ setAnioGraduacion(Integer): void&lt;br/&gt;+ getIdCarrera(): int&lt;br/&gt;+ getAntiguedad(): int&lt;br/&gt;+ getAnioGraduacion(): Integer&lt;br/&gt;+ setAnioInscripcion(int): void&lt;br/&gt;+ toString(): String&lt;/p&gt;" style="verticalAlign=top;align=left;overflow=fill;fontSize=14;fontFamily=Helvetica;html=1;rounded=0;shadow=0;comic=0;labelBackgroundColor=none;strokeWidth=1;">
      <mxGeometry x="1318" y="1389" width="344" height="475" as="geometry" />
    </mxCell>
    <mxCell id="node10" parent="1" vertex="1" value="&lt;p style=&quot;margin:0px;margin-top:4px;text-align:center;&quot;&gt;&lt;b&gt;EstudianteDTO&lt;/b&gt;&lt;/p&gt;&lt;hr size=&quot;1&quot;/&gt;&lt;p style=&quot;margin:0 0 0 4px;line-height:1.6;&quot;&gt;+ EstudianteDTO(int, String, String, int, String, String, int): &lt;br/&gt;+ EstudianteDTO(): &lt;/p&gt;&lt;hr size=&quot;1&quot;/&gt;&lt;p style=&quot;margin:0 0 0 4px;line-height:1.6;&quot;&gt;- nombre: String&lt;br/&gt;- lu: int&lt;br/&gt;- ciudad: String&lt;br/&gt;- apellido: String&lt;br/&gt;- dni: int&lt;br/&gt;- edad: int&lt;br/&gt;- genero: String&lt;/p&gt;&lt;hr size=&quot;1&quot;/&gt;&lt;p style=&quot;margin:0 0 0 4px;line-height:1.6;&quot;&gt;+ setDni(int): void&lt;br/&gt;+ getNombre(): String&lt;br/&gt;+ getGenero(): String&lt;br/&gt;+ getDni(): int&lt;br/&gt;+ setGenero(String): void&lt;br/&gt;+ setNombre(String): void&lt;br/&gt;+ getLu(): int&lt;br/&gt;+ setLu(int): void&lt;br/&gt;+ getCiudad(): String&lt;br/&gt;+ setApellido(String): void&lt;br/&gt;+ toString(): String&lt;br/&gt;+ getEdad(): int&lt;br/&gt;+ setEdad(int): void&lt;br/&gt;+ setCiudad(String): void&lt;br/&gt;+ getApellido(): String&lt;/p&gt;" style="verticalAlign=top;align=left;overflow=fill;fontSize=14;fontFamily=Helvetica;html=1;rounded=0;shadow=0;comic=0;labelBackgroundColor=none;strokeWidth=1;">
      <mxGeometry x="2416" y="510" width="404" height="619" as="geometry" />
    </mxCell>
    <mxCell id="node13" parent="1" vertex="1" value="&lt;p style=&quot;margin:0px;margin-top:4px;text-align:center;&quot;&gt;&lt;b&gt;EstudiantePorCarreraDTO&lt;/b&gt;&lt;/p&gt;&lt;hr size=&quot;1&quot;/&gt;&lt;p style=&quot;margin:0 0 0 4px;line-height:1.6;&quot;&gt;+ EstudiantePorCarreraDTO(): &lt;br/&gt;+ EstudiantePorCarreraDTO(String, long): &lt;/p&gt;&lt;hr size=&quot;1&quot;/&gt;&lt;p style=&quot;margin:0 0 0 4px;line-height:1.6;&quot;&gt;- cantidad: long&lt;br/&gt;- carrera: String&lt;/p&gt;&lt;hr size=&quot;1&quot;/&gt;&lt;p style=&quot;margin:0 0 0 4px;line-height:1.6;&quot;&gt;+ setCantidad(long): void&lt;br/&gt;+ toString(): String&lt;br/&gt;+ getCarrera(): String&lt;br/&gt;+ setCarrera(String): void&lt;br/&gt;+ getCantidad(): long&lt;/p&gt;" style="verticalAlign=top;align=left;overflow=fill;fontSize=14;fontFamily=Helvetica;html=1;rounded=0;shadow=0;comic=0;labelBackgroundColor=none;strokeWidth=1;">
      <mxGeometry x="961" y="1436" width="296" height="259" as="geometry" />
    </mxCell>
    <mxCell id="node8" parent="1" vertex="1" value="&lt;p style=&quot;margin:0px;margin-top:4px;text-align:center;&quot;&gt;&lt;b&gt;Estudiante_carrera&lt;/b&gt;&lt;/p&gt;&lt;hr size=&quot;1&quot;/&gt;&lt;p style=&quot;margin:0 0 0 4px;line-height:1.6;&quot;&gt;+ Estudiante_carrera(): &lt;br/&gt;+ Estudiante_carrera(Estudiante, Carrera, int, int, int): &lt;br/&gt;+ Estudiante_carrera(int, Estudiante, Carrera, int, int, int): &lt;/p&gt;&lt;hr size=&quot;1&quot;/&gt;&lt;p style=&quot;margin:0 0 0 4px;line-height:1.6;&quot;&gt;- carrera: Carrera&lt;br/&gt;- anio_graduacion: int&lt;br/&gt;- id_estudiante_carrera: int&lt;br/&gt;- estudiante: Estudiante&lt;br/&gt;- antiguedad: int&lt;br/&gt;- anio_inscripcion: int&lt;/p&gt;&lt;hr size=&quot;1&quot;/&gt;&lt;p style=&quot;margin:0 0 0 4px;line-height:1.6;&quot;&gt;+ getEstudiante(): Estudiante&lt;br/&gt;+ setCarrera(Carrera): void&lt;br/&gt;+ setAnio_graduacion(int): void&lt;br/&gt;+ setAnio_inscripcion(int): void&lt;br/&gt;+ getId_estudiante_carrera(): int&lt;br/&gt;+ getCarrera(): Carrera&lt;br/&gt;+ setId_estudiante_carrera(int): void&lt;br/&gt;+ setAntiguedad(int): void&lt;br/&gt;+ getAntiguedad(): int&lt;br/&gt;+ getAnio_graduacion(): int&lt;br/&gt;+ getAnio_inscripcion(): int&lt;br/&gt;+ setEstudiante(Estudiante): void&lt;/p&gt;" style="verticalAlign=top;align=left;overflow=fill;fontSize=14;fontFamily=Helvetica;html=1;rounded=0;shadow=0;comic=0;labelBackgroundColor=none;strokeWidth=1;">
      <mxGeometry x="-142" y="-13" width="397" height="547" as="geometry" />
    </mxCell>
    <mxCell id="node2" parent="1" vertex="1" value="&lt;p style=&quot;margin:0px;margin-top:4px;text-align:center;&quot;&gt;&lt;b&gt;JPAutil&lt;/b&gt;&lt;/p&gt;&lt;hr size=&quot;1&quot;/&gt;&lt;p style=&quot;margin:0 0 0 4px;line-height:1.6;&quot;&gt;+ JPAutil(): &lt;/p&gt;&lt;hr size=&quot;1&quot;/&gt;&lt;p style=&quot;margin:0 0 0 4px;line-height:1.6;&quot;&gt;- emf: EntityManagerFactory&lt;/p&gt;&lt;hr size=&quot;1&quot;/&gt;&lt;p style=&quot;margin:0 0 0 4px;line-height:1.6;&quot;&gt;+ getEntityManager(): EntityManager&lt;/p&gt;" style="verticalAlign=top;align=left;overflow=fill;fontSize=14;fontFamily=Helvetica;html=1;rounded=0;shadow=0;comic=0;labelBackgroundColor=none;strokeWidth=1;">
      <mxGeometry x="1722" y="1502" width="263" height="124" as="geometry" />
    </mxCell>
    <mxCell id="node12" parent="1" vertex="1" value="&lt;p style=&quot;margin:0px;margin-top:4px;text-align:center;&quot;&gt;&lt;b&gt;Main&lt;/b&gt;&lt;/p&gt;&lt;hr size=&quot;1&quot;/&gt;&lt;p style=&quot;margin:0 0 0 4px;line-height:1.6;&quot;&gt;+ Main(): &lt;/p&gt;&lt;hr size=&quot;1&quot;/&gt;&lt;p style=&quot;margin:0 0 0 4px;line-height:1.6;&quot;&gt;+ main(String[]): void&lt;/p&gt;" style="verticalAlign=top;align=left;overflow=fill;fontSize=14;fontFamily=Helvetica;html=1;rounded=0;shadow=0;comic=0;labelBackgroundColor=none;strokeWidth=1;">
      <mxGeometry x="1053" y="1030" width="168" height="96" as="geometry" />
    </mxCell>
    <mxCell id="node7" parent="1" vertex="1" value="&lt;p style=&quot;margin:0px;margin-top:4px;text-align:center;&quot;&gt;&lt;b&gt;Repository_carrera&lt;/b&gt;&lt;/p&gt;&lt;hr size=&quot;1&quot;/&gt;&lt;p style=&quot;margin:0 0 0 4px;line-height:1.6;&quot;&gt;+ Repository_carrera(): &lt;/p&gt;&lt;hr size=&quot;1&quot;/&gt;&lt;p style=&quot;margin:0 0 0 4px;line-height:1.6;&quot;&gt;+ carrerasConMasInscriptos(): List&amp;lt;CarreraDTO&amp;gt;&lt;br/&gt;+ CargarCSV(String): void&lt;br/&gt;+ reporteCarrera(int, String): CarreraReporteDTO&lt;/p&gt;" style="verticalAlign=top;align=left;overflow=fill;fontSize=14;fontFamily=Helvetica;html=1;rounded=0;shadow=0;comic=0;labelBackgroundColor=none;strokeWidth=1;">
      <mxGeometry x="1118" y="784" width="342" height="148" as="geometry" />
    </mxCell>
    <mxCell id="node0" parent="1" vertex="1" value="&lt;p style=&quot;margin:0px;margin-top:4px;text-align:center;&quot;&gt;&lt;b&gt;Repository_estudiante&lt;/b&gt;&lt;/p&gt;&lt;hr size=&quot;1&quot;/&gt;&lt;p style=&quot;margin:0 0 0 4px;line-height:1.6;&quot;&gt;+ Repository_estudiante(): &lt;/p&gt;&lt;hr size=&quot;1&quot;/&gt;&lt;p style=&quot;margin:0 0 0 4px;line-height:1.6;&quot;&gt;+ buscarEstudiantesPorGenero(String): List&amp;lt;EstudianteDTO&amp;gt;&lt;br/&gt;+ buscarEstudiantePorLU(int): EstudianteDTO&lt;br/&gt;+ obtenerTodosEstudiantesOrdenados(): List&amp;lt;EstudianteDTO&amp;gt;&lt;br/&gt;+ CargarCSV(String): void&lt;br/&gt;+ estudiantesPorCarreraYciudad(String, String): List&amp;lt;EstudiantePorCarreraDTO&amp;gt;&lt;br/&gt;+ darDeAltaEstudiante(EntityManager, Estudiante): void&lt;/p&gt;" style="verticalAlign=top;align=left;overflow=fill;fontSize=14;fontFamily=Helvetica;html=1;rounded=0;shadow=0;comic=0;labelBackgroundColor=none;strokeWidth=1;">
      <mxGeometry x="1538" y="715" width="535" height="209" as="geometry" />
    </mxCell>
    <mxCell id="node1" parent="1" vertex="1" value="&lt;p style=&quot;margin:0px;margin-top:4px;text-align:center;&quot;&gt;&lt;b&gt;Repository_estudiante_carrera&lt;/b&gt;&lt;/p&gt;&lt;hr size=&quot;1&quot;/&gt;&lt;p style=&quot;margin:0 0 0 4px;line-height:1.6;&quot;&gt;+ Repository_estudiante_carrera(): &lt;/p&gt;&lt;hr size=&quot;1&quot;/&gt;&lt;p style=&quot;margin:0 0 0 4px;line-height:1.6;&quot;&gt;+ CargarCSV(String): void&lt;br/&gt;+ matricularEstudianteEnCarrera(EntityManager, int, int, int): void&lt;/p&gt;" style="verticalAlign=top;align=left;overflow=fill;fontSize=14;fontFamily=Helvetica;html=1;rounded=0;shadow=0;comic=0;labelBackgroundColor=none;strokeWidth=1;">
      <mxGeometry x="1584" y="1029" width="443" height="122" as="geometry" />
    </mxCell>
    <mxCell id="edge0" edge="1" value="" parent="1" source="node3" target="node8" style="html=1;rounded=1;edgeStyle=orthogonalEdgeStyle;dashed=0;startArrow=diamondThinstartSize=12;endArrow=openThin;endSize=12;strokeColor=#595959;exitX=1.000;exitY=0.500;exitDx=0;exitDy=0;entryX=1.000;entryY=0.500;entryDx=0;entryDy=0;">
      <mxGeometry width="50" height="50" relative="1" as="geometry">
        <Array as="points">
          <mxPoint x="478" y="855" />
          <mxPoint x="478" y="260" />
        </Array>
      </mxGeometry>
    </mxCell>
    <mxCell id="label0" parent="edge0" vertex="1" connectable="0" value="1" style="edgeLabel;resizable=0;html=1;align=left;verticalAlign=top;strokeColor=default;">
      <mxGeometry x="366" y="240" as="geometry" />
    </mxCell>
    <mxCell id="label4" parent="edge0" vertex="1" connectable="0" value="*" style="edgeLabel;resizable=0;html=1;align=left;verticalAlign=top;strokeColor=default;">
      <mxGeometry x="467" y="240" as="geometry" />
    </mxCell>
    <mxCell id="label5" parent="edge0" vertex="1" connectable="0" value="carreras" style="edgeLabel;resizable=0;html=1;align=left;verticalAlign=top;strokeColor=default;">
      <mxGeometry x="260" y="300" as="geometry" />
    </mxCell>
    <mxCell id="edge3" edge="1" value="" parent="1" source="node5" target="node4" style="html=1;rounded=1;edgeStyle=orthogonalEdgeStyle;dashed=0;startArrow=diamondThinstartSize=12;endArrow=openThin;endSize=12;strokeColor=#595959;exitX=0.000;exitY=0.682;exitDx=0;exitDy=0;entryX=1.000;entryY=0.500;entryDx=0;entryDy=0;">
      <mxGeometry width="50" height="50" relative="1" as="geometry">
        <Array as="points" />
      </mxGeometry>
    </mxCell>
    <mxCell id="label18" parent="edge3" vertex="1" connectable="0" value="1" style="edgeLabel;resizable=0;html=1;align=left;verticalAlign=top;strokeColor=default;">
      <mxGeometry x="2864" y="1347" as="geometry" />
    </mxCell>
    <mxCell id="label22" parent="edge3" vertex="1" connectable="0" value="*" style="edgeLabel;resizable=0;html=1;align=left;verticalAlign=top;strokeColor=default;">
      <mxGeometry x="2796" y="1347" as="geometry" />
    </mxCell>
    <mxCell id="label23" parent="edge3" vertex="1" connectable="0" value="reportesPorAnio" style="edgeLabel;resizable=0;html=1;align=left;verticalAlign=top;strokeColor=default;">
      <mxGeometry x="2774" y="1367" as="geometry" />
    </mxCell>
    <mxCell id="edge4" edge="1" value="" parent="1" source="node11" target="node8" style="html=1;rounded=1;edgeStyle=orthogonalEdgeStyle;dashed=0;startArrow=diamondThinstartSize=12;endArrow=openThin;endSize=12;strokeColor=#595959;exitX=0.000;exitY=0.500;exitDx=0;exitDy=0;entryX=1.000;entryY=0.500;entryDx=0;entryDy=0;">
      <mxGeometry width="50" height="50" relative="1" as="geometry">
        <Array as="points">
          <mxPoint x="478" y="1464" />
          <mxPoint x="478" y="260" />
        </Array>
      </mxGeometry>
    </mxCell>
    <mxCell id="label24" parent="edge4" vertex="1" connectable="0" value="1" style="edgeLabel;resizable=0;html=1;align=left;verticalAlign=top;strokeColor=default;">
      <mxGeometry x="467" y="451" as="geometry" />
    </mxCell>
    <mxCell id="label28" parent="edge4" vertex="1" connectable="0" value="*" style="edgeLabel;resizable=0;html=1;align=left;verticalAlign=top;strokeColor=default;">
      <mxGeometry x="296" y="240" as="geometry" />
    </mxCell>
    <mxCell id="label29" parent="edge4" vertex="1" connectable="0" value="carreras" style="edgeLabel;resizable=0;html=1;align=left;verticalAlign=top;strokeColor=default;">
      <mxGeometry x="273" y="250" as="geometry" />
    </mxCell>
    <mxCell id="edge1" edge="1" value="" parent="1" source="node8" target="node3" style="html=1;rounded=1;edgeStyle=orthogonalEdgeStyle;dashed=0;startArrow=diamondThinstartSize=12;endArrow=openThin;endSize=12;strokeColor=#595959;exitX=0.981;exitY=1.000;exitDx=0;exitDy=0;entryX=0.435;entryY=0.000;entryDx=0;entryDy=0;">
      <mxGeometry width="50" height="50" relative="1" as="geometry">
        <Array as="points" />
      </mxGeometry>
    </mxCell>
    <mxCell id="label6" parent="edge1" vertex="1" connectable="0" value="1" style="edgeLabel;resizable=0;html=1;align=left;verticalAlign=top;strokeColor=default;">
      <mxGeometry x="288" y="628" as="geometry" />
    </mxCell>
    <mxCell id="label10" parent="edge1" vertex="1" connectable="0" value="1" style="edgeLabel;resizable=0;html=1;align=left;verticalAlign=top;strokeColor=default;">
      <mxGeometry x="252" y="550" as="geometry" />
    </mxCell>
    <mxCell id="label11" parent="edge1" vertex="1" connectable="0" value="carrera" style="edgeLabel;resizable=0;html=1;align=left;verticalAlign=top;strokeColor=default;">
      <mxGeometry x="216" y="583" as="geometry" />
    </mxCell>
    <mxCell id="edge2" edge="1" value="" parent="1" source="node8" target="node11" style="html=1;rounded=1;edgeStyle=orthogonalEdgeStyle;dashed=0;startArrow=diamondThinstartSize=12;endArrow=openThin;endSize=12;strokeColor=#595959;exitX=1.000;exitY=0.473;exitDx=0;exitDy=0;entryX=0.500;entryY=0.000;entryDx=0;entryDy=0;">
      <mxGeometry width="50" height="50" relative="1" as="geometry">
        <Array as="points">
          <mxPoint x="700" y="245" />
        </Array>
      </mxGeometry>
    </mxCell>
    <mxCell id="label12" parent="edge2" vertex="1" connectable="0" value="1" style="edgeLabel;resizable=0;html=1;align=left;verticalAlign=top;strokeColor=default;">
      <mxGeometry x="689" y="378" as="geometry" />
    </mxCell>
    <mxCell id="label16" parent="edge2" vertex="1" connectable="0" value="1" style="edgeLabel;resizable=0;html=1;align=left;verticalAlign=top;strokeColor=default;">
      <mxGeometry x="700" y="950" as="geometry" />
    </mxCell>
    <mxCell id="label17" parent="edge2" vertex="1" connectable="0" value="estudiante" style="edgeLabel;resizable=0;html=1;align=left;verticalAlign=top;strokeColor=default;">
      <mxGeometry x="659" y="950" as="geometry" />
    </mxCell>
  </root>
</mxGraphModel>